<?xml version="1.0" encoding="iso-8859-1"?>
<!-- Generator: Adobe Illustrator 19.0.0, SVG Export Plug-In . SVG Version: 6.00 Build 0)  -->
<svg version="1.1" id="Layer_1" xmlns="http://www.w3.org/2000/svg" xmlns:xlink="http://www.w3.org/1999/xlink" x="0px" y="0px"
	 viewBox="0 0 512 512" style="enable-background:new 0 0 512 512;" xml:space="preserve">
<g>
	<g>
		<g>
			<path d="M111.445,218.394c-46.959,22.639-77.312,70.895-77.312,122.94c0,75.281,61.252,136.533,136.533,136.533
				c52.062,0,100.309-30.353,122.94-77.321c2.039-4.241,0.256-9.344-3.994-11.392c-4.232-2.039-9.344-0.256-11.392,3.985
				c-19.789,41.105-62.012,67.661-107.554,67.661C104.798,460.8,51.2,407.211,51.2,341.333c0-45.534,26.564-87.757,67.661-107.563
				c4.241-2.048,6.024-7.142,3.977-11.392C120.798,218.138,115.729,216.346,111.445,218.394z"/>
			<path d="M334.515,250.88c-2.825,3.763-2.074,9.105,1.698,11.938c1.536,1.152,3.336,1.707,5.111,1.707
				c2.594,0,5.154-1.169,6.827-3.396c0.247-0.324,24.294-31.838,54.989-39.518C472.329,204.314,512,163.968,512,110.933
				c0-30.49-12.373-58.146-32.35-78.217c-0.06-0.06-0.077-0.154-0.145-0.213c-0.068-0.068-0.154-0.085-0.222-0.154
				C459.213,12.373,431.565,0,401.067,0c-53.035,0-93.38,39.68-110.669,108.86c-5.786,23.108-40.832,58.615-59.648,75.691
				l-96.717-96.725c-5.658-5.649-14.071-8.892-23.1-8.892c-9.02,0-17.434,3.243-23.1,8.9L70.767,104.9
				c-12.092,12.083-12.092,34.099-0.009,46.191l33.229,33.229C41.267,210.893,0,272.384,0,341.333C0,435.439,76.561,512,170.667,512
				c68.966,0,130.458-41.267,157.013-103.996l33.229,33.229c5.658,5.658,14.071,8.9,23.091,8.9c9.028,0,17.442-3.243,23.108-8.9
				l17.067-17.067c5.658-5.658,8.892-14.071,8.9-23.091c0-9.028-3.234-17.451-8.9-23.108L242.833,196.625
				c16.401-14.984,56.755-54.178,64.111-83.618c8.96-35.831,33.101-95.94,94.123-95.94c22.818,0,43.733,8.192,60.032,21.777
				l-6.332,6.323c-3.328,3.337-3.328,8.73,0,12.066c1.673,1.664,3.857,2.5,6.033,2.5c2.185,0,4.369-0.836,6.042-2.5l6.323-6.323
				c13.577,16.282,21.768,37.214,21.768,60.023c0,61.022-60.1,85.163-95.932,94.123C362.351,214.212,335.633,249.387,334.515,250.88
				z M170.667,494.933c-84.685,0-153.6-68.907-153.6-153.6c0-64.392,39.996-121.557,100.053-143.872l197.427,197.41
				C292.241,454.938,235.068,494.933,170.667,494.933z M412.109,390.042c2.449,2.44,3.9,6.562,3.9,11.025
				c0,4.463-1.459,8.585-3.908,11.034l-17.067,17.067c-2.441,2.441-6.562,3.9-11.034,3.9c-4.463,0-8.576-1.451-11.025-3.9
				L82.833,139.025c-5.359-5.359-5.35-16.7,0.009-22.059L99.9,99.9c2.449-2.44,6.571-3.9,11.034-3.9
				c4.471,0,8.585,1.451,11.025,3.891L412.109,390.042z"/>
			<path d="M453.316,163.405c2.432,0,4.847-1.033,6.528-3.038c11.622-13.807,18.022-31.36,18.022-49.434
				c0-4.71-3.814-8.533-8.533-8.533c-4.71,0-8.533,3.823-8.533,8.533c0,14.054-4.975,27.708-14.003,38.443
				c-3.046,3.61-2.577,8.994,1.033,12.023C449.425,162.748,451.379,163.405,453.316,163.405z"/>
		</g>
	</g>
</g>
<g>
</g>
<g>
</g>
<g>
</g>
<g>
</g>
<g>
</g>
<g>
</g>
<g>
</g>
<g>
</g>
<g>
</g>
<g>
</g>
<g>
</g>
<g>
</g>
<g>
</g>
<g>
</g>
<g>
</g>
</svg>
