<?xml version="1.0" standalone="no"?>
<!DOCTYPE svg PUBLIC "-//W3C//DTD SVG 20010904//EN"
 "http://www.w3.org/TR/2001/REC-SVG-20010904/DTD/svg10.dtd">
<svg version="1.0" xmlns="http://www.w3.org/2000/svg"
 width="2000.000000pt" height="1500.000000pt" viewBox="0 0 2000.000000 1500.000000"
 preserveAspectRatio="xMidYMid meet">

<g transform="translate(0.000000,1500.000000) scale(0.100000,-0.100000)"
fill="#000000" stroke="none">
<path d="M2980 9955 l0 -114 -117 -3 -118 -3 0 -2330 0 -2330 2333 -3 2332 -2
0 120 0 120 115 0 115 0 0 2330 0 2330 -2330 0 -2330 0 0 -115z m2259 -572
c210 -54 391 -246 437 -464 27 -126 16 -203 -90 -621 -98 -385 -142 -590 -131
-608 3 -5 25 -10 48 -10 23 0 103 -9 177 -20 387 -55 636 -143 748 -264 152
-165 -8 -352 -383 -449 -66 -17 -85 -26 -82 -37 57 -189 61 -214 61 -360 -1
-114 -6 -161 -22 -221 -45 -166 -120 -303 -232 -422 -86 -93 -168 -152 -285
-207 -120 -57 -189 -76 -315 -89 -423 -44 -836 212 -981 610 -76 207 -80 443
-10 642 15 42 17 59 8 61 -233 67 -362 122 -434 189 -83 76 -102 151 -62 235
70 143 398 268 834 318 77 8 152 18 166 22 l27 7 -29 140 c-15 77 -53 232 -84
345 -138 510 -130 473 -130 615 0 151 18 221 85 325 148 228 415 332 679 263z"/>
<path d="M4953 9285 c-238 -64 -400 -288 -380 -525 3 -36 26 -144 51 -240 140
-534 176 -687 194 -802 l19 -126 -86 -7 c-499 -37 -899 -156 -967 -287 -15
-30 -15 -34 1 -65 39 -72 202 -150 435 -206 69 -17 126 -31 128 -33 2 -1 -10
-29 -27 -63 -17 -33 -42 -99 -56 -148 -130 -446 135 -915 591 -1045 104 -30
324 -32 423 -5 154 42 258 99 368 201 88 82 149 165 197 267 53 110 68 179 73
324 6 153 -14 256 -72 382 -19 42 -35 79 -35 83 0 4 53 20 118 35 267 63 452
160 452 238 0 94 -208 198 -522 262 -119 24 -290 47 -451 60 l-78 7 6 46 c25
185 55 321 168 762 36 140 70 287 75 325 14 107 0 195 -48 291 -105 214 -353
329 -577 269z m-209 -2335 c176 -14 541 -11 711 4 l140 13 22 -26 c38 -44 81
-133 103 -215 29 -103 25 -276 -8 -376 -64 -195 -232 -364 -425 -426 -238 -76
-487 -20 -666 151 -89 85 -141 168 -177 280 -61 192 -33 395 78 568 28 43 33
47 62 42 17 -3 89 -10 160 -15z"/>
<path d="M4573 6793 c-44 -96 -53 -136 -53 -239 0 -147 54 -283 153 -384 116
-119 247 -175 407 -173 163 2 302 63 409 180 157 170 194 422 93 623 -23 45
-32 55 -53 53 -355 -22 -472 -24 -670 -13 -118 6 -223 13 -235 16 -17 4 -25
-5 -51 -63z"/>
<path d="M10795 8753 c-304 -65 -455 -326 -455 -788 0 -514 185 -777 565 -802
240 -15 449 90 533 269 36 76 62 186 62 262 l0 56 -109 0 -108 0 -7 -66 c-13
-130 -77 -239 -168 -285 -79 -40 -237 -40 -317 1 -103 52 -164 145 -196 295
-23 109 -24 426 -1 540 31 158 116 274 227 310 62 21 180 24 234 5 124 -41
197 -147 212 -307 l6 -63 113 0 114 0 0 56 c0 77 -26 187 -64 264 -100 208
-365 312 -641 253z"/>
<path d="M16811 8755 c-153 -34 -277 -127 -321 -240 -28 -75 -37 -202 -20
-276 18 -79 45 -126 106 -186 64 -64 133 -98 349 -173 182 -63 215 -79 265
-131 102 -105 71 -282 -62 -350 -76 -39 -233 -42 -318 -7 -89 38 -140 118
-143 224 l-2 64 -117 0 -118 0 0 -68 c0 -213 116 -363 330 -427 146 -43 365
-25 498 41 128 63 191 148 219 298 31 165 -1 299 -96 395 -67 70 -131 103
-311 165 -253 87 -325 128 -356 203 -29 69 -12 165 37 210 72 66 235 89 329
46 84 -37 140 -124 140 -215 l0 -28 116 0 117 0 -6 86 c-6 109 -44 192 -118
258 -121 108 -326 152 -518 111z"/>
<path d="M8020 7965 l0 -775 115 0 115 0 0 315 0 315 200 0 c214 0 274 8 360
48 109 51 202 173 229 300 56 265 -70 496 -304 557 -47 12 -125 15 -387 15
l-328 0 0 -775z m660 549 c57 -26 106 -81 121 -136 19 -71 7 -187 -24 -241
-57 -97 -117 -117 -354 -117 l-173 0 0 261 0 261 193 -4 c168 -3 198 -6 237
-24z"/>
<path d="M9396 8508 c-170 -527 -416 -1303 -416 -1310 0 -5 50 -7 112 -6 l111
3 50 163 50 162 302 0 302 0 49 -162 50 -163 123 -3 c97 -2 122 0 118 10 -2 7
-114 356 -248 776 l-244 762 -142 0 -142 0 -75 -232z m228 -40 c8 -41 58 -216
111 -389 52 -173 98 -322 101 -331 5 -17 -11 -18 -230 -18 -130 0 -236 4 -236
8 0 4 45 152 99 329 83 269 131 443 131 479 0 25 12 -13 24 -78z"/>
<path d="M11740 7965 l0 -775 110 0 110 0 0 775 0 775 -110 0 -110 0 0 -775z"/>
<path d="M12260 7965 l0 -775 115 0 115 0 0 335 0 335 293 2 292 3 3 103 3
102 -296 0 -295 0 0 235 0 235 335 0 335 0 0 100 0 100 -450 0 -450 0 0 -775z"/>
<path d="M13390 7965 l0 -775 110 0 110 0 0 775 0 775 -110 0 -110 0 0 -775z"/>
<path d="M13910 7965 l0 -775 490 0 490 0 0 100 0 100 -375 0 -375 0 0 245 0
245 320 0 320 0 0 105 0 105 -320 0 -320 0 0 225 0 225 370 0 370 0 0 100 0
100 -485 0 -485 0 0 -775z"/>
<path d="M15150 7965 l0 -775 115 0 115 0 0 335 0 335 191 -2 191 -3 136 -332
137 -333 127 0 126 0 -153 357 -153 357 44 23 c106 54 178 142 209 257 27 100
18 233 -23 319 -57 122 -154 198 -290 226 -33 7 -189 11 -412 11 l-360 0 0
-775z m741 549 c84 -39 127 -129 116 -241 -8 -80 -48 -140 -116 -175 l-53 -28
-229 0 -229 0 0 236 0 236 233 -4 c212 -3 236 -5 278 -24z"/>
<path d="M8662 6758 c2 -15 11 -24 26 -26 22 -3 22 -5 22 -163 0 -152 -1 -159
-20 -159 -13 0 -20 -7 -20 -20 0 -18 7 -20 55 -20 48 0 55 2 55 20 0 11 -4 20
-10 20 -5 0 -10 18 -10 40 0 59 27 53 93 -20 44 -49 60 -60 85 -60 25 0 32 4
32 20 0 13 -7 20 -18 20 -11 0 -38 23 -62 51 l-43 51 44 44 c24 24 49 44 56
44 7 0 13 9 13 20 0 17 -7 20 -51 20 -48 0 -50 -1 -47 -24 5 -37 -36 -86 -72
-86 l-30 0 0 125 0 125 -51 0 c-47 0 -50 -2 -47 -22z"/>
<path d="M11125 6755 c-19 -18 -25 -35 -25 -70 0 -41 -2 -45 -25 -45 -18 0
-25 -5 -25 -20 0 -15 7 -20 25 -20 25 0 25 0 25 -95 0 -88 -1 -95 -20 -95 -13
0 -20 -7 -20 -20 0 -18 7 -20 65 -20 58 0 65 2 65 20 0 13 -7 20 -20 20 -19 0
-20 7 -20 95 l0 95 30 0 c23 0 30 4 30 20 0 16 -7 20 -30 20 -28 0 -30 2 -30
39 0 48 19 65 64 58 26 -4 36 -1 41 10 8 22 -12 33 -63 33 -32 0 -49 -6 -67
-25z"/>
<path d="M12340 6759 c0 -12 8 -23 20 -26 19 -5 20 -14 20 -185 l0 -180 33 3
c17 2 45 -1 60 -5 41 -12 101 9 131 44 60 72 33 199 -48 229 -34 13 -44 13
-82 -1 l-44 -16 0 79 0 79 -45 0 c-39 0 -45 -3 -45 -21z m220 -184 c34 -36 33
-107 -3 -143 -29 -28 -85 -34 -112 -12 -23 19 -21 156 3 169 33 20 87 13 112
-14z"/>
<path d="M12980 6755 c0 -18 5 -25 20 -25 19 0 20 -7 20 -180 l0 -180 38 -1
c131 -4 130 -4 158 21 74 69 70 192 -8 240 -32 21 -77 22 -120 5 -16 -6 -18 0
-18 69 l0 76 -45 0 c-41 0 -45 -2 -45 -25z m195 -161 c8 -4 22 -19 30 -35 43
-82 -19 -172 -102 -150 -27 7 -28 9 -31 85 -2 49 1 83 9 92 12 14 65 19 94 8z"/>
<path d="M8022 6718 c3 -49 5 -53 31 -56 25 -3 27 -1 27 32 0 36 0 36 45 36
l45 0 0 -160 c0 -153 -1 -160 -20 -160 -13 0 -20 -7 -20 -20 0 -18 7 -20 70
-20 63 0 70 2 70 20 0 15 -7 20 -25 20 l-26 0 3 158 3 157 53 3 52 3 0 -36 c0
-34 2 -36 28 -33 25 3 27 7 30 56 l3 52 -186 0 -186 0 3 -52z"/>
<path d="M8420 6637 c-19 -6 -35 -19 -35 -27 0 -12 12 -14 58 -12 64 4 87 -7
87 -44 0 -21 -5 -24 -40 -24 -109 0 -169 -82 -105 -145 29 -29 88 -34 123 -9
12 8 22 10 22 5 0 -6 18 -11 40 -11 33 0 40 3 40 20 0 11 -7 20 -15 20 -12 0
-15 17 -15 89 0 79 -3 93 -23 116 -26 31 -85 41 -137 22z m110 -180 c0 -26 -6
-36 -25 -45 -54 -25 -95 -9 -95 35 0 29 25 42 78 43 41 0 42 -1 42 -33z"/>
<path d="M9073 6631 c-42 -26 -63 -69 -63 -126 0 -90 49 -145 129 -145 22 0
56 7 75 17 28 13 33 20 26 34 -9 15 -13 16 -51 3 -23 -8 -51 -12 -63 -8 -33
10 -66 45 -66 71 0 23 2 23 101 23 88 0 100 2 95 16 -3 9 -6 26 -6 40 0 13
-13 38 -28 55 -37 41 -102 50 -149 20z m107 -41 c38 -38 27 -50 -50 -50 -77 0
-84 7 -45 45 29 30 68 32 95 5z"/>
<path d="M9525 6640 c-45 -18 -85 -84 -85 -138 1 -45 36 -109 69 -126 51 -27
105 -21 147 16 33 30 35 33 18 45 -15 11 -21 10 -38 -6 -62 -56 -146 -14 -146
74 0 82 94 135 141 79 18 -21 59 -18 59 5 0 10 -8 22 -17 25 -10 3 -29 13 -43
21 -27 16 -74 18 -105 5z"/>
<path d="M9798 6641 c-39 -13 -48 -20 -42 -36 4 -10 19 -12 60 -8 61 6 84 -6
84 -43 0 -21 -4 -24 -41 -24 -115 0 -170 -100 -85 -156 19 -11 37 -14 63 -10
21 4 62 6 91 6 46 -1 52 1 52 19 0 12 -7 21 -15 21 -12 0 -15 17 -15 93 0 86
-2 95 -24 116 -27 25 -86 35 -128 22z m102 -186 c0 -24 -6 -37 -19 -45 -29
-15 -67 -12 -85 6 -36 36 -6 74 60 74 44 0 44 0 44 -35z"/>
<path d="M10375 6640 c-97 -40 -107 -217 -15 -265 56 -29 180 -6 166 31 -3 8
-6 17 -6 19 0 1 -19 -4 -41 -12 -57 -19 -106 -3 -124 40 -7 18 -11 35 -9 39 3
5 48 8 100 8 94 0 94 0 94 25 0 89 -85 149 -165 115z m90 -55 c39 -38 32 -45
-45 -45 -79 0 -90 13 -44 49 35 27 59 26 89 -4z"/>
<path d="M10803 6635 c-96 -41 -98 -214 -3 -262 65 -33 159 -2 186 62 55 133
-56 255 -183 200z m125 -61 c34 -39 31 -107 -7 -145 -18 -17 -40 -29 -56 -29
-16 0 -38 12 -56 29 -23 24 -29 38 -29 73 0 96 88 139 148 72z"/>
<path d="M11497 6631 c-29 -15 -37 -16 -37 -5 0 10 -13 14 -45 14 -38 0 -45
-3 -45 -20 0 -13 7 -20 20 -20 19 0 20 -7 20 -95 0 -88 -1 -95 -20 -95 -13 0
-20 -7 -20 -20 0 -18 7 -20 65 -20 57 0 65 2 65 19 0 10 -9 21 -20 24 -18 5
-20 14 -20 80 0 67 3 78 22 91 29 20 82 20 98 1 7 -9 15 -50 18 -91 4 -70 3
-76 -17 -81 -12 -3 -21 -13 -21 -24 0 -17 8 -19 60 -19 53 0 60 2 60 20 0 11
-7 20 -15 20 -12 0 -15 16 -15 85 0 93 8 105 69 105 45 0 61 -30 61 -117 0
-66 -2 -73 -20 -73 -13 0 -20 -7 -20 -20 0 -18 7 -20 65 -20 58 0 65 2 65 20
0 13 -7 20 -19 20 -17 0 -19 9 -23 95 -3 82 -6 97 -26 117 -31 31 -95 31 -139
0 -18 -13 -33 -18 -33 -12 0 11 -59 40 -83 40 -7 0 -29 -9 -50 -19z"/>
<path d="M12740 6637 c-19 -6 -35 -19 -35 -27 0 -12 12 -14 58 -12 64 4 87 -7
87 -44 0 -21 -5 -24 -40 -24 -80 0 -130 -36 -130 -95 0 -60 93 -98 148 -59 12
8 22 10 22 5 0 -6 18 -11 40 -11 33 0 40 3 40 20 0 11 -7 20 -15 20 -12 0 -15
17 -15 89 0 79 -3 93 -23 116 -26 31 -85 41 -137 22z m110 -180 c0 -26 -6 -36
-25 -45 -54 -25 -95 -9 -95 35 0 29 25 42 78 43 41 0 42 -1 42 -33z"/>
<path d="M10040 6620 c0 -13 7 -20 20 -20 19 0 20 -7 20 -95 0 -88 -1 -95 -20
-95 -13 0 -20 -7 -20 -20 0 -18 7 -20 70 -20 63 0 70 2 70 20 0 15 -7 20 -25
20 -24 0 -25 2 -25 75 0 62 4 79 20 95 22 22 40 26 40 10 0 -5 11 -10 25 -10
21 0 25 5 25 30 0 28 -2 30 -39 30 -23 0 -46 -7 -55 -16 -15 -14 -16 -14 -16
0 0 12 -11 16 -45 16 -38 0 -45 -3 -45 -20z"/>
<path d="M11900 6624 c0 -9 7 -22 15 -28 8 -6 34 -61 58 -122 39 -99 42 -114
32 -144 -6 -18 -21 -37 -33 -41 -13 -5 -22 -17 -22 -29 0 -18 6 -20 60 -20 54
0 60 2 60 20 0 11 -8 24 -19 28 -17 6 -14 18 41 160 37 93 66 152 74 152 8 0
14 9 14 20 0 18 -7 20 -55 20 -48 0 -55 -2 -55 -20 0 -11 7 -20 15 -20 8 0 15
-5 15 -12 0 -16 -54 -158 -60 -158 -5 0 -60 149 -60 163 0 4 7 7 15 7 8 0 15
9 15 20 0 18 -7 20 -55 20 -44 0 -55 -3 -55 -16z"/>
<path d="M13300 6621 c0 -10 6 -21 14 -24 8 -3 34 -58 59 -121 44 -112 45
-118 31 -151 -8 -19 -21 -35 -29 -35 -9 0 -15 -10 -15 -25 0 -24 3 -25 55 -25
49 0 55 2 55 20 0 11 -9 24 -19 28 -17 6 -15 18 42 160 35 89 66 152 74 152 7
0 13 9 13 20 0 17 -7 20 -50 20 -43 0 -50 -3 -50 -20 0 -11 5 -20 10 -20 6 0
10 -5 10 -12 0 -16 -53 -158 -60 -158 -5 0 -60 149 -60 163 0 4 7 7 15 7 8 0
15 9 15 20 0 18 -7 20 -55 20 -47 0 -55 -3 -55 -19z"/>
</g>
</svg>
