<?xml version="1.0" encoding="UTF-8"?><svg id="a" xmlns="http://www.w3.org/2000/svg" width="106.97071mm" height="39.57044mm" viewBox="0 0 303.22405 112.16817"><path d="M290.99438,83.28369v1.58753h-3.08737v8.00272h-1.89468v-8.00272h-3.05007v-1.58753h8.03212Zm10.33499,9.59024l-.34038-5.66663c-.03867-.73522-.03867-1.66323-.07189-2.68436h-.10484c-.26468,.86538-.53725,1.97311-.82317,2.86926l-1.71769,5.31835h-1.95868l-1.75635-5.47928c-.14623-.73522-.4188-1.84295-.64209-2.70833h-.10919c0,.93591-.04656,1.80156-.06236,2.68436l-.35781,5.66663h-1.84022l.70472-9.59024h2.86272l1.66595,4.6749c.20205,.75128,.37115,1.4413,.6184,2.43711h.03839c.21811-.89098,.47354-1.68583,.67286-2.39055l1.63409-4.72146h2.76279l.71942,9.59024h-1.89468Z" style="fill:#e43d30;"/><g><path d="M249.6877,112.16817c-1.67157,0-3.34749-.21576-4.98201-.64182-3.34531-.86847-6.38878-2.45722-9.03997-4.71939-7.21476-6.16104-9.12496-16.72765-4.54178-25.12579,.82598-1.51465,1.6574-3.02604,2.491-4.53742-1.13-1.81758-2.25999-3.6526-3.38999-5.4996-6.12617,11.60725-18.9495,21.16046-37.02072,21.2825h-.26152c-4.73792,0-9.37777-.86194-13.60027-2.50953-3.09469,1.67266-6.61434,2.5444-10.34976,2.5444-6.77998,0-13.0903-3.25269-17.04038-8.74249-.50016,.40209-1.01667,.7922-1.54734,1.17031-3.78663,2.69368-8.18457,4.6344-13.44227,5.9333-3.79753,.92405-7.67024,1.44273-11.85787,1.58984-.98616,.02615-1.86989,.03814-2.75253,.03814s-1.76528-.01199-2.64901-.03487c-4.27808-.14929-8.16387-.66797-11.92761-1.58548-5.28167-1.30325-9.68506-3.24615-13.47605-5.94201-.5176-.36831-1.02212-.74861-1.51138-1.14089-3.82477,5.34705-10.1449,8.69781-16.91616,8.69781-5.26532,0-10.29637-1.99193-14.16799-5.60966-.00436-.00436-1.13544-1.02866-1.26512-1.15179l-18.89719-18.97456v5.05284c0,2.87675-.57971,5.62274-1.72278,8.16169-3.23089,7.55256-10.72025,12.49534-19.03776,12.49534-8.28482,0-15.76219-4.91445-19.04975-12.5204-1.13-2.44088-1.7315-5.22174-1.7315-8.13662V20.438c0-3.82586,1.03846-7.34988,3.08815-10.47616C6.84209,3.81714,13.60572,.00545,20.76926,.00545,26.10977,.00545,31.18985,2.05186,35.07564,5.76658c.1057,.10025,.19287,.18307,19.93784,19.9945v-4.99181c0-2.7765,.55247-5.43204,1.64105-7.89036C59.76883,5.12911,67.34209,.00545,75.87209,.00545,84.48164,.00545,91.88818,5.25988,95.05151,12.73071c2.09654-3.57087,5.44621-6.37353,9.57718-7.75633l10.34649-3.34422c1.06135-.34216,2.12705-.67778,3.19167-1.00577,1.48414-.42933,2.82227-.62439,4.18545-.62439,1.34575,0,2.6817,.18851,3.97406,.56118,1.27492,.39119,2.33954,.72682,3.40197,1.06897q10.78236,3.49024,10.95453,3.55671c.01308,.00545,.78348,.30947,.82162,.32581,.93385,.38793,1.70861,.85649,2.22839,1.19647,.21249,.12858,.43805,.27133,.58189,.36831,.18525,.12531,.35088,.24409,.51324,.36504,.25498,.19178,.50452,.39337,.74643,.60041,1.64541,1.32287,3.01623,2.93123,4.0645,4.73356C152.83495,5.27731,160.28072,.00763,168.93385,.00763c10.94037,0,19.95091,8.41994,20.88586,19.1184,1.37517-.12204,2.77323-.18851,4.18872-.2005l.39991-.00109c11.23458,0,19.27204,3.4946,24.76293,7.4316,3.45428-3.98931,7.95029-6.46506,13.09139-7.18752,1.04827-.14602,2.09-.22011,3.10013-.22011,6.91728,0,13.08267,3.40742,16.91725,9.34726,.52631,.81508,1.90149,3.03911,4.16584,6.73857,1.45799-2.72855,2.59779-4.85343,2.977-5.54646,2.89636-5.27949,7.73017-8.88087,13.6079-10.13618,1.40568-.29966,2.8288-.45222,4.23231-.45222,1.66503,0,3.32352,.21249,4.9297,.63092,3.79426,.99161,7.1156,2.82771,9.87684,5.45929,6.62742,6.32231,8.1704,16.03679,3.8422,24.17232-1.20083,2.25563-2.42562,4.49274-3.6526,6.72985l-1.38171,2.51607c-3.91412,7.13957-7.82825,14.41426-11.74455,21.68895-3.90541,7.25617-7.71492,14.33798-11.52225,21.29558-2.88765,5.27404-7.44904,8.80133-13.18946,10.20265-1.5626,.3803-3.15353,.57317-4.73356,.57317Z" style="fill:#e43d30;"/><path d="M288.19038,29.06062c-2.06385-1.96687-4.55921-3.34204-7.41635-4.08847-1.14198-.29748-2.32319-.44895-3.51094-.44895-1.01122,0-2.04206,.11115-3.05764,.32799-4.31512,.92187-7.72364,3.463-9.85287,7.34443-.7388,1.34466-4.34781,8.10611-7.58198,14.17344-3.80951-6.25911-8.19874-13.45098-9.21541-15.02339-2.819-4.36743-7.14938-6.77344-12.19241-6.77344-.75842,0-1.53754,.05666-2.31774,.16563-4.1484,.58298-7.74107,2.7449-10.38899,6.24821-.94257,1.24686-1.64051,2.6283-2.11956,4.07567-.24477-.26452-.46761-.54756-.72232-.80337-4.40993-4.42954-12.394-9.71012-25.38949-9.71012l-.37158,.00109c-3.43358,.02724-6.7146,.41844-9.77659,1.15833v-4.74119c0-8.4559-6.88241-15.33504-15.34266-15.33504-8.45699,0-15.33831,6.87914-15.33831,15.33504v8.85799c-2.02244-2.35588-4.71762-4.03658-7.7457-4.8033,.21644-.71578,.38561-1.44478,.46339-2.18589,.04468-.41517,.06647-.8336,.06647-1.25095,0-3.61882-1.62144-6.98266-4.45569-9.26335-.15582-.13294-.31601-.26261-.47946-.38575-.08826-.06647-.17871-.13076-.27024-.19287-.10679-.07192-.2855-.18198-.43696-.27242-.27024-.17871-.79111-.51542-1.49395-.80745-.02724-.01199-.58298-.22774-.58298-.22774-.02833-.0109-10.65705-3.4521-10.65705-3.4521-1.03846-.33453-2.07911-.66252-3.23634-1.01776-.78566-.22665-1.59747-.34107-2.41473-.34107-.81508,0-1.6258,.11442-2.53132,.37594-1.04064,.32037-2.08237,.64836-3.11648,.9818l-10.29092,3.3257c-4.87086,1.63016-8.14316,6.16213-8.14316,11.27708,0,1.19919,.23033,2.34349,.57058,3.44297-3.04252,.77749-5.75473,2.47738-7.77935,4.8586l.00272-9.06435c0-8.37635-6.81594-15.19229-15.19229-15.19229-6.24167,0-11.74455,3.73324-14.07537,9.52705-.76931,1.73695-1.15942,3.62427-1.15942,5.61293v18.6008C31.36529,9.99888,31.25414,9.89319,31.18876,9.83107c-2.83316-2.70894-6.53262-4.2018-10.4195-4.2018-5.26532,0-10.19503,2.80592-12.92903,7.34116-1.47107,2.21423-2.2164,4.72593-2.2164,7.46756v51.82399c0,2.09545,.42714,4.08084,1.27056,5.90605,2.39838,5.54973,7.8326,9.12714,13.88686,9.12714,6.07495,0,11.52225-3.6003,13.90974-9.18054,.81399-1.80778,1.22698-3.77682,1.22698-5.85266v-18.66836l28.40572,28.52341c.12204,.1166,1.21826,1.10711,1.21826,1.10711,2.82662,2.64247,6.49557,4.09719,10.33015,4.09719,5.87227,0,11.25092-3.43575,13.7452-8.76537,.71755-1.44083,1.16623-2.98027,1.34371-4.59313,1.65359,2.57055,3.83907,4.88067,6.59786,6.84222,3.20365,2.27852,6.97503,3.93265,11.5495,5.06155,3.39217,.82707,6.88894,1.29236,10.74204,1.42748,.83469,.02179,1.6683,.03269,2.5019,.03269s1.66721-.0109,2.55638-.03487c3.79971-.13294,7.29648-.59932,10.70609-1.42966,4.55594-1.12455,8.32841-2.77759,11.53097-5.05611,2.74217-1.94998,4.91962-4.24035,6.5728-6.79373,.26847,2.31952,1.08505,4.51821,2.46063,6.43196,2.86694,4.32057,7.64082,6.8933,12.81352,6.8933,3.77464,0,7.19623-1.19865,9.84742-3.30063,4.12007,2.09654,9.03125,3.26576,14.10261,3.26576h.22338c20.76885-.1403,34.09452-14.8598,35.40581-29.17735,.79764,1.30925,1.5957,2.61468,2.39293,3.92625,2.74817,4.51889,5.49307,9.03452,8.24232,13.43246,0,0,.82053,1.31415,.92841,1.48523l-.69195,1.25204c-1.13109,2.04968-2.26217,4.09828-3.38345,6.15341-3.31589,6.07713-1.94616,13.71142,3.25596,18.15403,1.99847,1.70535,4.29006,2.90181,6.80722,3.55562,1.1714,.30511,2.37005,.45984,3.56325,.45984h.00109c1.13218,0,2.27743-.13948,3.3998-.41299,4.16693-1.01667,7.48173-3.58831,9.58917-7.43814,3.8008-6.9467,7.60595-14.01653,11.41111-21.08745,3.95335-7.34552,7.9067-14.69213,11.86005-21.90579l1.13544-2.06712c1.29672-2.3646,2.59561-4.72811,3.864-7.11124,3.12955-5.88426,2.02244-12.9007-2.75689-17.461Z" style="fill:#fff;"/><g><path d="M283.64344,33.82916c-1.2801-1.22126-2.81709-2.03443-4.53238-2.48215-1.1665-.30443-2.35479-.30456-3.52742-.0538-2.43638,.52114-4.25846,1.89059-5.4582,4.07417-1.36046,2.47629-12.97779,24.30946-12.97779,24.30946,0,0-13.31941-21.96066-15.1265-24.75841-1.88773-2.92292-4.66655-4.13397-8.05817-3.65682-2.48801,.34992-4.53129,1.68628-6.05112,3.697-1.94085,2.56796-2.04655,6.28009-.26629,9.11202,5.73429,9.12156,11.43385,18.78302,17.14663,27.91807,.67383,1.07756,1.34235,2.15852,2.02394,3.23089l1.05072,1.53658-1.73981,2.99171,.00014-.00163c-1.43075,2.59302-2.86517,5.18401-4.28366,7.78371-1.84169,3.37528-1.12632,7.53226,1.75002,9.98772,1.21908,1.04064,2.62272,1.78476,4.18995,2.19216,1.24727,.32432,2.49073,.32649,3.74263,.02084,2.42603-.59224,4.17551-2.01713,5.36993-4.19975,7.75047-14.16377,15.51579-28.83735,23.27402-42.99689,1.66067-3.03108,3.33768-6.05357,4.96062-9.1048,1.72877-3.25024,1.12836-7.1047-1.48727-9.60006Z" style="fill:#e43d30;"/><path d="M133.63439,56.46815c-.00272,2.53881,.17003,4.95626-1.21699,7.21789-2.02626,3.3039-6.08449,4.827-10.06481,4.85847-3.98032-.03146-8.03855-1.55456-10.06467-4.85847-1.38716-2.26163-1.19824-4.67908-1.20096-7.21789v-16.49225c.00123-.07778-.00586-.28686-.00586-.31873,0-.10447-.02711-.20145-.03078-.30511-.01566-.26098-.03719-.51855-.07737-.76713-.53285-4.20874-4.08616-7.47546-8.43969-7.47546-3.71389,0-6.8429,2.38285-8.02221,5.6918-.12831,.32037-.23128,.64863-.30606,.98575-.02711,.12082-.0459,.24327-.06783,.366-.08377,.48463-.12981,.98398-.15078,1.49586,0,.00286-.00082,.00545-.00082,.00831,0,.00109,.00027,.00218,.00027,.00327-.01553,.38289,.00014,.77027,0,1.16568v21.16058c.10624,5.71332,2.76724,10.16152,7.39237,13.45085,2.80919,1.99779,5.96789,3.2091,9.28978,4.02813,3.09864,.75583,6.20163,1.13258,9.35829,1.24278,1.55225,.041,3.10054,.041,4.65265,0,3.15666-.11019,6.25965-.48695,9.35829-1.24278,3.32202-.81903,6.48072-2.03034,9.28978-4.02813,4.62514-3.28933,7.30956-7.73753,7.41594-13.45085v-21.16058c-.00014-.3739-.00736-.7403-.02084-1.10303,.00014-.02247,.00667-.04331,.00667-.06593,0-.05748-.0158-.11047-.01689-.16767-.02111-.41857-.06007-.82884-.12395-1.22888-.03037-.18375-.05898-.36586-.10093-.54552-.06715-.28849-.15623-.57004-.26261-.84613-1.16037-3.34381-4.3045-5.75949-8.04332-5.75949-4.32343,0-7.85985,3.22109-8.43084,7.38788-.05898,.33821-.09303,.68868-.10583,1.05004-.00054,.03746-.00999,.13171-.00999,.14316v16.77761Z" style="fill:#e43d30;"/><path d="M109.75945,26.86937c.03405,.00422,.06865,.00708,.10311,.01035,.23463,.01434,.46389,.03303,.6996,.01885,.26657-.01604,.52779-.06374,.78768-.12223,.0346-.0079,.06947-.01444,.10393-.02275,.03446-.00817,.06838-.01798,.1027-.0267,.07478-.0188,.14969-.03746,.22407-.0583,.36777-.10338,.73553-.20731,1.1033-.31083,1.85422-.52168,3.70817-1.04391,5.56212-1.56641,1.09948-.30974,2.44687-.68677,3.54608-.99733,.12041-.03392,.24027-.07001,.36055-.1042,.12041,.03419,.24027,.07028,.36068,.1042,1.09921,.31056,2.44646,.68759,3.54595,.99733,1.85409,.5225,3.70804,1.04473,5.56226,1.56641,.36777,.10352,.7354,.20745,1.10344,.31083,.05803,.01635,.1166,.03078,.17489,.04563,.15296,.04059,.30443,.08036,.48137,.11142,.19503,.03854,.3887,.05911,.58128,.06551,.13904,.00462,.2732,.01857,.41289,.01182,.25411-.01228,.51128-.04819,.76225-.08978,.21105-.03498,.42-.08256,.62536-.1425,.40267-.11753,.79129-.28267,1.1554-.49094,.359-.20535,.694-.45245,.99617-.73483,.30141-.28166,.57003-.59831,.79837-.9419,.23046-.34678,.41968-.72083,.562-1.11214,.14601-.40148,.24237-.82071,.28705-1.24556,.01959-.18623,.0293-.37349,.0293-.56075,0-1.71393-.82339-3.22204-2.0806-4.19662-.07492-.0662-.15065-.1309-.23074-.19042-.07042-.04863-.14806-.08527-.22107-.13049-.17748-.11333-.34502-.23946-.54634-.32268-.0568-.02343-.11442-.04468-.18238-.0711-.044-.01703-.08758-.03514-.13199-.05149-.03324-.01212-.06702-.02275-.10039-.03446-.0726-.02574-.1452-.05176-.21875-.07546-.36354-.11755-.72722-.23469-1.0909-.35197-1.83297-.59197-3.66609-1.18339-5.49933-1.77468-1.08709-.3506-2.41786-.78252-3.50522-1.13245-1.01149-.32554-2.02489-.64523-3.04034-.95824-.38588-.11074-.79519-.11074-1.18107,0-1.01544,.31301-2.02898,.63269-3.04034,.95824-1.0875,.34992-2.41813,.78184-3.50536,1.13245-1.83311,.59129-3.66622,1.18271-5.4992,1.77468-.36368,.11728-.72736,.23442-1.09118,.35197-.04086,.01321-.08132,.02792-.12177,.04209-2.11289,.7072-3.64565,2.67965-3.64565,5.03063,0,2.79611,2.16151,5.0636,4.90083,5.2848Z" style="fill:#e43d30;"/><path d="M84.47634,20.8219c0-4.75209-3.85242-8.60451-8.60464-8.60451-3.65641,0-6.76009,2.28969-8.00627,5.50587-.42075,.91029-.64046,1.9226-.64046,3.04606V55.3135S26.78933,14.73887,26.63543,14.59168c-1.52877-1.46212-3.58371-2.37429-5.86656-2.37429-3.15734,0-5.88358,1.73286-7.36159,4.28053-.77953,1.12496-1.19497,2.42971-1.19497,3.93973v51.82423c0,1.19946,.24382,2.2649,.69576,3.21591,1.29358,3.0718,4.33106,5.22882,7.87333,5.22882,3.54731,0,6.5871-2.16383,7.87755-5.24258,.43642-.94747,.67111-2.00868,.67111-3.20215V37.6432l39.54768,39.71269c.17517,.16836,1.03197,.93228,1.16287,1.05468,1.53101,1.43162,3.569,2.32223,5.83109,2.32223,3.47825,0,6.45729-2.0742,7.81381-5.04398,.49921-.9773,.77531-2.0742,.77531-3.31902,0,0,.01553-51.49504,.01553-51.54789Z" style="fill:#e43d30;"/></g><path d="M194.10351,31.13782c-5.97784,.04549-11.83894,1.40691-16.41518,4.3628v-14.52696h-.00068c0-.00232,.00068-.00436,.00068-.00667,0-4.83122-3.92339-8.7478-8.75474-8.7478s-8.7497,3.91657-8.7497,8.7478v51.41528c-.0049,1.61136,.50752,3.09346,1.41563,4.31458,1.56668,2.4323,4.28502,4.0521,7.39333,4.0521,3.95185,0,7.25589-2.13672,8.36982-5.72231,.00599-.01825,.01526-.03392,.02125-.0523,3.6929,3.78256,9.87153,5.78142,15.73781,5.74083,17.35993-.11673,28.88573-12.6483,28.99755-24.70055,.05598-12.41811-9.42653-25.02418-28.01575-24.8768Zm-3.09809,37.41164c-9.46712,.06606-13.47959-6.97353-13.44894-13.18497,.05571-6.20667,4.37288-12.63155,13.60136-12.68726,8.98984-.09644,13.36272,6.91251,13.34256,12.92072-.05081,5.97293-4.52039,12.88027-13.49498,12.9515Z" style="fill:#e43d30;"/></g></svg>